<?xml version="1.0" standalone="no"?>
<!DOCTYPE svg PUBLIC "-//W3C//DTD SVG 20010904//EN"
 "http://www.w3.org/TR/2001/REC-SVG-20010904/DTD/svg10.dtd">
<svg version="1.0" xmlns="http://www.w3.org/2000/svg"
 width="700.000000pt" height="700.000000pt" viewBox="0 0 700.000000 700.000000"
 preserveAspectRatio="xMidYMid meet">
<metadata>
Created by potrace 1.14, written by Peter Selinger 2001-2017
</metadata>
<g transform="translate(0.000000,700.000000) scale(0.100000,-0.100000)"
fill="#000000" stroke="none">
<path d="M1860 6533 c-64 -5 -215 -23 -240 -28 -14 -4 -36 -8 -50 -11 -14 -3
-43 -10 -65 -16 -22 -5 -50 -12 -63 -14 -12 -3 -72 -22 -133 -44 -498 -178
-906 -552 -1131 -1038 -35 -75 -102 -261 -113 -311 -34 -156 -47 -227 -53
-281 -14 -129 -5 -536 13 -625 3 -11 7 -37 10 -59 35 -254 157 -598 297 -841
181 -314 522 -702 903 -1025 28 -24 52 -46 55 -49 3 -4 34 -31 69 -60 35 -29
70 -58 76 -64 6 -7 29 -25 50 -42 21 -16 66 -53 99 -81 107 -89 475 -379 971
-765 199 -155 484 -379 667 -526 120 -96 231 -178 248 -183 17 -5 43 -5 60 0
17 5 151 105 298 222 147 118 382 304 522 413 375 293 597 465 649 505 25 20
55 43 66 52 42 34 103 84 141 113 38 30 232 186 313 254 275 225 558 489 748
697 279 306 490 653 602 989 27 83 52 164 55 180 3 17 8 41 11 55 15 70 26
129 31 165 3 22 7 50 10 63 28 132 25 580 -6 732 -107 543 -398 989 -844 1290
-425 289 -962 398 -1473 299 -58 -11 -159 -38 -222 -60 -64 -21 -120 -40 -126
-42 -75 -26 -232 -106 -335 -172 -148 -95 -311 -235 -432 -373 l-38 -42 -37
42 c-336 382 -780 614 -1288 673 -57 7 -262 12 -315 8z"/>
</g>
</svg>
